<svg width="100" height="147" viewBox="0 0 100 147" fill="none" xmlns="http://www.w3.org/2000/svg">
	<rect x="1" y="8" width="98" height="138" fill="white" stroke="black" stroke-width="2"/>
	<rect x="9.5" y="17.5" width="82" height="121" fill="white" stroke="black"/>
	<path d="M19.5836 38.3587C19.5836 36.7536 20.9675 35.0789 21.9064 33.9053C23.7815 31.5614 26.179 31.1499 28.9229 31.1499C31.7574 31.1499 31.916 33.9372 33.2802 35.9077C33.9541 36.881 34.7748 36.6663 35.7953 36.2762C39.5944 34.8236 43.6705 34.3653 47.3133 32.4315C48.7992 31.6427 50.0041 29.9705 51.4624 29.3077C52.3086 28.923 54.273 33.6247 54.6983 34.1936C57.9697 38.5692 63.7254 38.4536 67.4498 34.8985C68.3376 34.051 69.8121 35.6703 70.4775 36.164C71.6562 37.0385 73.7502 37.252 75.1071 36.6286C76.0872 36.1783 76.3176 35.8997 77.5581 36.2281C78.2882 36.4214 79.8546 36.6201 79.2722 37.4936" stroke="black" stroke-width="3" stroke-linecap="round"/>
	<path d="M20.1603 63.4452C20.0924 62.9023 19.7883 62.8252 20.1282 62.1636C21.6151 59.2702 24.4531 56.4522 26.9205 54.4102C27.924 53.5797 28.8527 53.0016 30.0283 53.8335C31.8944 55.1541 34.0101 57.0402 35.2346 58.9758C36.075 60.3042 36.2906 62.2079 37.4613 63.317C38.2097 64.026 39.9909 63.8049 40.9215 63.7015C41.8437 63.5991 42.6453 63.1569 43.5808 63.1569C46.1586 63.1569 48.721 63.0956 51.2861 62.7884C54.9567 62.3488 58.5911 61.5116 62.1313 60.4496C62.7988 60.2493 63.0673 60.3305 63.1245 61.0743C63.2445 62.6338 65.303 63.6683 66.5847 63.8938C69.8625 64.4704 73.1041 64.044 75.4595 61.7792C75.9989 61.2606 78.6652 61.0778 78.9838 61.7151" stroke="black" stroke-width="3" stroke-linecap="round"/>
	<path d="M23.9088 83.0531C25.5922 80.2044 29.8902 76.7279 33.4244 78.5676C36.0842 79.9521 35.2728 85.5476 38.006 86.0647C42.4054 86.897 47.0601 85.3599 51.4944 85.3599C55.257 85.3599 58.163 83.7704 61.6828 82.7647" stroke="black" stroke-width="3" stroke-linecap="round"/>
	<rect x="27.5" y="7.5" width="46" height="14" fill="white" stroke="black"/>
	<path d="M36 0.5H65C67.4853 0.5 69.5 2.51472 69.5 5V10.5H31.5V5C31.5 2.51472 33.5147 0.5 36 0.5Z" fill="white" stroke="black"/>
	<rect x="28" y="8" width="45" height="13" fill="white"/>
	<circle cx="41.5" cy="4.5" r="2" fill="white" stroke="black"/>
	<circle cx="59.5" cy="4.5" r="2" fill="white" stroke="black"/>
	<path d="M81.6057 46.3657L88.9781 51.5279L71.484 76.512C71.3256 76.7382 71.0139 76.7932 70.7877 76.6348L64.2344 72.0462C64.0082 71.8878 63.9533 71.576 64.1116 71.3498L81.6057 46.3657Z" fill="white" stroke="black"/>
	<path d="M85.7023 43.1303L90.6173 46.5718C91.2959 47.0469 91.4608 47.9823 90.9856 48.6609L88.4045 52.347L81.0322 47.1849L83.6133 43.4987C84.0884 42.8201 85.0237 42.6551 85.7023 43.1303Z" fill="white" stroke="black"/>
	<path d="M61.9472 81.4793L64.1289 71.8975C64.2077 71.5512 64.6123 71.3952 64.9032 71.5989L70.9793 75.8534C71.2702 76.0571 71.2619 76.4906 70.9635 76.6831L62.7058 82.0104C62.3291 82.2534 61.8477 81.9163 61.9472 81.4793Z" fill="white" stroke="black"/>
	<rect x="81.0322" y="47.1849" width="9" height="4" transform="rotate(35 81.0322 47.1849)" fill="white" stroke="black"/>
</svg>
