<svg width="52" height="52" viewBox="0 0 52 52" fill="none" xmlns="http://www.w3.org/2000/svg">
	<circle cx="26" cy="26" r="20" fill="white" stroke="black" stroke-width="2"/>
	<rect x="22" y="1" width="8" height="10" rx="2" fill="white" stroke="black" stroke-width="2"/>
	<rect x="1" y="-1" width="10" height="8" rx="2" transform="matrix(1 0 0 -1 0 29)" fill="white" stroke="black" stroke-width="2"/>
	<rect x="22" y="41" width="8" height="10" rx="2" fill="white" stroke="black" stroke-width="2"/>
	<rect x="1" y="-1" width="10" height="8" rx="2" transform="matrix(1 0 0 -1 40 29)" fill="white" stroke="black" stroke-width="2"/>
	<rect y="-1.41421" width="10" height="8" rx="2" transform="matrix(0.707107 -0.707107 -0.707107 -0.707107 38.0711 17.1421)" fill="white" stroke="black" stroke-width="2"/>
	<rect y="-1.41421" width="10" height="8" rx="2" transform="matrix(0.707107 -0.707107 -0.707107 -0.707107 10.071 45.1421)" fill="white" stroke="black" stroke-width="2"/>
	<rect x="-1.41421" width="10" height="8" rx="2" transform="matrix(-0.707107 -0.707107 -0.707107 0.707107 45.1421 39.4853)" fill="white" stroke="black" stroke-width="2"/>
	<rect x="-1.41421" width="10" height="8" rx="2" transform="matrix(-0.707107 -0.707107 -0.707107 0.707107 17.1421 11.4853)" fill="white" stroke="black" stroke-width="2"/>
	<circle cx="26" cy="26" r="19" fill="white"/>
	<circle cx="26" cy="26" r="9" fill="white" stroke="black" stroke-width="2"/>
</svg>
