<svg width="81" height="77" viewBox="0 0 81 77" fill="none" xmlns="http://www.w3.org/2000/svg">
	<path d="M69 35C69 53.7777 53.7777 69 35 69C16.2223 69 1 53.7777 1 35C1 16.2223 16.2223 1 35 1C53.7777 1 69 16.2223 69 35Z" fill="#EBEBEB"/>
	<path d="M7 54.2133C7 54.2133 9.58784 32.0953 34.538 32.0003C59.4886 31.9053 63 53.7611 63 53.7611C63 53.7611 54.5913 68.3173 35.6471 68.9791C16.7028 69.6418 7.09296 54.3292 7 54.2133Z" fill="white"/>
	<path d="M34.8919 31.7838C40.355 31.7838 44.7837 27.355 44.7837 21.8919C44.7837 16.4287 40.355 12 34.8919 12C29.4287 12 25 16.4287 25 21.8919C25 27.355 29.4287 31.7838 34.8919 31.7838Z" fill="white"/>
	<path d="M69 35C69 53.7777 53.7777 69 35 69C16.2223 69 1 53.7777 1 35C1 16.2223 16.2223 1 35 1C53.7777 1 69 16.2223 69 35Z" stroke="black" stroke-width="2"/>
	<path d="M7 54.2133C7 54.2133 9.58784 32.0953 34.538 32.0003C59.4886 31.9053 63 53.7611 63 53.7611C63 53.7611 54.5913 68.3173 35.6471 68.9791C16.7028 69.6418 7.09296 54.3292 7 54.2133Z" stroke="black" stroke-width="2"/>
	<path d="M34.8919 31.7838C40.355 31.7838 44.7837 27.355 44.7837 21.8919C44.7837 16.4287 40.355 12 34.8919 12C29.4287 12 25 16.4287 25 21.8919C25 27.355 29.4287 31.7838 34.8919 31.7838Z" stroke="black" stroke-width="2"/>
	<path d="M68.6058 35.3657L75.9781 40.5279L58.484 65.512C58.3257 65.7382 58.0139 65.7932 57.7877 65.6348L51.2345 61.0462C51.0083 60.8878 50.9533 60.576 51.1117 60.3498L68.6058 35.3657Z" fill="white" stroke="black"/>
	<path d="M72.7023 32.1303L77.6173 35.5718C78.2959 36.0469 78.4608 36.9823 77.9856 37.6609L75.4045 41.347L68.0322 36.1849L70.6133 32.4987C71.0884 31.8201 72.0237 31.6551 72.7023 32.1303Z" fill="white" stroke="black"/>
	<path d="M48.9472 70.4793L51.1289 60.8975C51.2077 60.5512 51.6123 60.3952 51.9032 60.5989L57.9793 64.8534C58.2702 65.0571 58.2619 65.4906 57.9635 65.6831L49.7058 71.0104C49.3291 71.2534 48.8477 70.9163 48.9472 70.4793Z" fill="white" stroke="black"/>
	<rect x="68.0322" y="36.1849" width="9" height="4" transform="rotate(35 68.0322 36.1849)" fill="white" stroke="black"/>
</svg>
